<mxfile host="65bd71144e">
    <diagram id="fjN8D4Odn0497USpxgly" name="Page-1">
        <mxGraphModel dx="689" dy="1678" grid="1" gridSize="10" guides="1" tooltips="1" connect="1" arrows="1" fold="1" page="1" pageScale="1" pageWidth="1169" pageHeight="827" background="#ffffff" math="0" shadow="0">
            <root>
                <mxCell id="0"/>
                <mxCell id="1" parent="0"/>
                <mxCell id="370" value="string" style="rounded=0;whiteSpace=wrap;html=1;fillColor=#fff2cc;strokeColor=#d6b656;" parent="1" vertex="1">
                    <mxGeometry x="110" y="-360" width="330" height="40" as="geometry"/>
                </mxCell>
                <mxCell id="162" value="Registry ID" style="rounded=0;whiteSpace=wrap;html=1;fillColor=#fff2cc;strokeColor=#d6b656;align=center;" parent="1" vertex="1">
                    <mxGeometry x="110.5" y="-760" width="529.5" height="40" as="geometry"/>
                </mxCell>
                <mxCell id="168" value="string" style="rounded=0;whiteSpace=wrap;html=1;fillColor=#fff2cc;strokeColor=#d6b656;" parent="1" vertex="1">
                    <mxGeometry x="110.5" y="-720" width="529.5" height="40" as="geometry"/>
                </mxCell>
                <mxCell id="169" value="string" style="rounded=0;whiteSpace=wrap;html=1;fillColor=#fff2cc;strokeColor=#d6b656;" parent="1" vertex="1">
                    <mxGeometry x="110.5" y="-680" width="529.5" height="40" as="geometry"/>
                </mxCell>
                <mxCell id="196" value="&lt;b&gt;Configuration Schema&lt;/b&gt;" style="rounded=0;whiteSpace=wrap;html=1;align=center;fillColor=#dae8fc;strokeColor=#6c8ebf;" parent="1" vertex="1">
                    <mxGeometry x="40.5" y="-800" width="599.5" height="40" as="geometry"/>
                </mxCell>
                <mxCell id="217" value="" style="rounded=0;whiteSpace=wrap;html=1;fillColor=#d5e8d4;strokeColor=#82b366;" parent="1" vertex="1">
                    <mxGeometry x="110.5" y="-560" width="529.5" height="40" as="geometry"/>
                </mxCell>
                <mxCell id="242" value="&lt;font style=&quot;font-size: 12px&quot;&gt;callback&lt;br&gt;&lt;/font&gt;" style="text;html=1;align=center;verticalAlign=middle;resizable=0;points=[];autosize=1;strokeColor=none;fillColor=none;fontSize=6;" parent="1" vertex="1">
                    <mxGeometry x="111" y="-545" width="60" height="10" as="geometry"/>
                </mxCell>
                <mxCell id="244" value="param_id" style="rounded=0;whiteSpace=wrap;html=1;" parent="1" vertex="1">
                    <mxGeometry x="171" y="-551.75" width="60" height="23.5" as="geometry"/>
                </mxCell>
                <mxCell id="245" value="instance" style="rounded=0;whiteSpace=wrap;html=1;" parent="1" vertex="1">
                    <mxGeometry x="310" y="-551.75" width="60" height="23.5" as="geometry"/>
                </mxCell>
                <mxCell id="246" value="Schema Instance" style="rounded=0;whiteSpace=wrap;html=1;fontSize=10;" parent="1" vertex="1">
                    <mxGeometry x="370" y="-551.75" width="70" height="23.5" as="geometry"/>
                </mxCell>
                <mxCell id="247" value="Registry ID" style="rounded=0;whiteSpace=wrap;html=1;" parent="1" vertex="1">
                    <mxGeometry x="231" y="-551.75" width="69" height="23.5" as="geometry"/>
                </mxCell>
                <mxCell id="248" value="val_len" style="rounded=0;whiteSpace=wrap;html=1;" parent="1" vertex="1">
                    <mxGeometry x="538" y="-551.75" width="50" height="23.5" as="geometry"/>
                </mxCell>
                <mxCell id="249" value="size *" style="rounded=0;whiteSpace=wrap;html=1;" parent="1" vertex="1">
                    <mxGeometry x="588" y="-551.75" width="42" height="23.5" as="geometry"/>
                </mxCell>
                <mxCell id="280" value="&lt;b&gt;Schema Item&lt;/b&gt;" style="rounded=0;whiteSpace=wrap;html=1;align=center;fillColor=#dae8fc;strokeColor=#6c8ebf;" parent="1" vertex="1">
                    <mxGeometry x="40" y="-480" width="400" height="40" as="geometry"/>
                </mxCell>
                <mxCell id="282" value="union" style="rounded=0;whiteSpace=wrap;html=1;fillColor=#e1d5e7;strokeColor=#9673a6;" parent="1" vertex="1">
                    <mxGeometry x="110" y="-320" width="330" height="20" as="geometry"/>
                </mxCell>
                <mxCell id="283" value="" style="rounded=0;whiteSpace=wrap;html=1;fillColor=#e1d5e7;strokeColor=#9673a6;gradientColor=none;" parent="1" vertex="1">
                    <mxGeometry x="110" y="-300" width="20" height="80" as="geometry"/>
                </mxCell>
                <mxCell id="284" value="" style="rounded=0;whiteSpace=wrap;html=1;fillColor=#e1d5e7;strokeColor=none;gradientColor=none;" parent="1" vertex="1">
                    <mxGeometry x="110.5" y="-310" width="19" height="13" as="geometry"/>
                </mxCell>
                <mxCell id="333" value="Array&amp;lt;Schema Item&amp;gt;" style="rounded=0;whiteSpace=wrap;html=1;fillColor=#fff2cc;strokeColor=#d6b656;" parent="1" vertex="1">
                    <mxGeometry x="110.5" y="-640" width="529.5" height="40" as="geometry"/>
                </mxCell>
                <mxCell id="274" value="items" style="rounded=0;whiteSpace=wrap;html=1;fillColor=#ffe6cc;strokeColor=#d79b00;" parent="1" vertex="1">
                    <mxGeometry x="130" y="-260" width="50" height="40" as="geometry"/>
                </mxCell>
                <mxCell id="161" value="id" style="rounded=0;whiteSpace=wrap;html=1;align=center;fillColor=#dae8fc;strokeColor=#6c8ebf;" parent="1" vertex="1">
                    <mxGeometry x="40.5" y="-760" width="70" height="40" as="geometry"/>
                </mxCell>
                <mxCell id="163" value="name" style="rounded=0;whiteSpace=wrap;html=1;fillColor=#dae8fc;strokeColor=#6c8ebf;" parent="1" vertex="1">
                    <mxGeometry x="40.5" y="-720" width="70" height="40" as="geometry"/>
                </mxCell>
                <mxCell id="166" value="description" style="rounded=0;whiteSpace=wrap;html=1;fillColor=#dae8fc;strokeColor=#6c8ebf;" parent="1" vertex="1">
                    <mxGeometry x="40.5" y="-680" width="70" height="40" as="geometry"/>
                </mxCell>
                <mxCell id="167" value="items" style="rounded=0;whiteSpace=wrap;html=1;fillColor=#dae8fc;strokeColor=#6c8ebf;" parent="1" vertex="1">
                    <mxGeometry x="40.5" y="-640" width="70" height="40" as="geometry"/>
                </mxCell>
                <mxCell id="194" value="mapping" style="rounded=0;whiteSpace=wrap;html=1;fillColor=#dae8fc;strokeColor=#6c8ebf;" parent="1" vertex="1">
                    <mxGeometry x="40.5" y="-560" width="70" height="40" as="geometry"/>
                </mxCell>
                <mxCell id="357" value="Registry Type" style="rounded=0;whiteSpace=wrap;html=1;fillColor=#fff2cc;strokeColor=#d6b656;" parent="1" vertex="1">
                    <mxGeometry x="341" y="-260" width="99" height="40" as="geometry"/>
                </mxCell>
                <mxCell id="368" value="Registry ID" style="rounded=0;whiteSpace=wrap;html=1;fillColor=#fff2cc;strokeColor=#d6b656;" parent="1" vertex="1">
                    <mxGeometry x="110" y="-440" width="330" height="40" as="geometry"/>
                </mxCell>
                <mxCell id="369" value="string" style="rounded=0;whiteSpace=wrap;html=1;fillColor=#fff2cc;strokeColor=#d6b656;" parent="1" vertex="1">
                    <mxGeometry x="110" y="-400" width="330" height="40" as="geometry"/>
                </mxCell>
                <mxCell id="371" value="id" style="rounded=0;whiteSpace=wrap;html=1;align=center;fillColor=#dae8fc;strokeColor=#6c8ebf;" parent="1" vertex="1">
                    <mxGeometry x="40" y="-440" width="70" height="40" as="geometry"/>
                </mxCell>
                <mxCell id="372" value="name" style="rounded=0;whiteSpace=wrap;html=1;fillColor=#dae8fc;strokeColor=#6c8ebf;" parent="1" vertex="1">
                    <mxGeometry x="40" y="-400" width="70" height="40" as="geometry"/>
                </mxCell>
                <mxCell id="373" value="description" style="rounded=0;whiteSpace=wrap;html=1;fillColor=#dae8fc;strokeColor=#6c8ebf;" parent="1" vertex="1">
                    <mxGeometry x="40" y="-360" width="70" height="40" as="geometry"/>
                </mxCell>
                <mxCell id="374" value="value" style="rounded=0;whiteSpace=wrap;html=1;fillColor=#dae8fc;strokeColor=#6c8ebf;" parent="1" vertex="1">
                    <mxGeometry x="40" y="-320" width="70" height="100" as="geometry"/>
                </mxCell>
                <mxCell id="385" value="List&amp;lt;Schema Instance&amp;gt;" style="rounded=0;whiteSpace=wrap;html=1;fillColor=#fff2cc;strokeColor=#d6b656;" parent="1" vertex="1">
                    <mxGeometry x="110.5" y="-600" width="529.5" height="40" as="geometry"/>
                </mxCell>
                <mxCell id="386" value="instances" style="rounded=0;whiteSpace=wrap;html=1;fillColor=#dae8fc;strokeColor=#6c8ebf;" parent="1" vertex="1">
                    <mxGeometry x="40.5" y="-600" width="70" height="40" as="geometry"/>
                </mxCell>
                <mxCell id="388" value="val" style="rounded=0;whiteSpace=wrap;html=1;" parent="1" vertex="1">
                    <mxGeometry x="449" y="-551.75" width="30" height="23.5" as="geometry"/>
                </mxCell>
                <mxCell id="389" value="void **" style="rounded=0;whiteSpace=wrap;html=1;" parent="1" vertex="1">
                    <mxGeometry x="479" y="-551.75" width="49" height="23.5" as="geometry"/>
                </mxCell>
                <mxCell id="390" value="" style="group" parent="1" vertex="1" connectable="0">
                    <mxGeometry x="280" y="-304" width="11.5" height="84" as="geometry"/>
                </mxCell>
                <mxCell id="281" value="" style="rounded=0;whiteSpace=wrap;html=1;fillColor=#e1d5e7;strokeColor=#9673a6;" parent="390" vertex="1">
                    <mxGeometry y="4" width="11.5" height="80" as="geometry"/>
                </mxCell>
                <mxCell id="285" value="" style="rounded=0;whiteSpace=wrap;html=1;fillColor=#e1d5e7;strokeColor=none;gradientColor=none;" parent="390" vertex="1">
                    <mxGeometry x="0.5" width="11" height="16" as="geometry"/>
                </mxCell>
                <mxCell id="266" value="Parameter" style="rounded=0;whiteSpace=wrap;html=1;fillColor=#ffe6cc;strokeColor=#d79b00;" parent="1" vertex="1">
                    <mxGeometry x="291.5" y="-300" width="148.5" height="40" as="geometry"/>
                </mxCell>
                <mxCell id="302" value="type" style="rounded=0;whiteSpace=wrap;html=1;fillColor=#ffe6cc;strokeColor=#d79b00;" parent="1" vertex="1">
                    <mxGeometry x="291.5" y="-260" width="49.5" height="40" as="geometry"/>
                </mxCell>
                <mxCell id="265" value="Group" style="rounded=0;whiteSpace=wrap;html=1;fillColor=#ffe6cc;strokeColor=#d79b00;" parent="1" vertex="1">
                    <mxGeometry x="130" y="-300" width="150" height="40" as="geometry"/>
                </mxCell>
                <mxCell id="334" value="Array&amp;lt;Schema Item&amp;gt;" style="rounded=0;whiteSpace=wrap;html=1;fillColor=#fff2cc;strokeColor=#d6b656;" parent="1" vertex="1">
                    <mxGeometry x="180" y="-260" width="100" height="40" as="geometry"/>
                </mxCell>
            </root>
        </mxGraphModel>
    </diagram>
</mxfile>